<mxfile host="app.diagrams.net" modified="2023-05-03T12:31:08.976Z" agent="Mozilla/5.0 (Windows NT 10.0; Win64; x64) AppleWebKit/537.36 (KHTML, like Gecko) Chrome/112.0.0.0 Safari/537.36" etag="NGQrXeIn4VtpOx_sYkM5" version="21.2.6" type="github">
  <diagram name="Page-1" id="MZ87BxiuIwEp7jPw1ExZ">
    <mxGraphModel dx="2150" dy="743" grid="1" gridSize="10" guides="1" tooltips="1" connect="1" arrows="1" fold="1" page="1" pageScale="1" pageWidth="827" pageHeight="1169" math="0" shadow="0">
      <root>
        <mxCell id="0" />
        <mxCell id="1" parent="0" />
        <mxCell id="GAQoPDuNliMr2iQyG7WM-1" style="edgeStyle=orthogonalEdgeStyle;rounded=0;orthogonalLoop=1;jettySize=auto;html=1;dashed=1;dashPattern=8 8;endArrow=none;endFill=0;labelBackgroundColor=none;fontColor=default;strokeWidth=2;fontStyle=0" parent="1" source="GAQoPDuNliMr2iQyG7WM-2" edge="1">
          <mxGeometry relative="1" as="geometry">
            <mxPoint x="580" y="590" as="targetPoint" />
          </mxGeometry>
        </mxCell>
        <mxCell id="GAQoPDuNliMr2iQyG7WM-2" value=":Branch" style="rounded=0;whiteSpace=wrap;html=1;labelBackgroundColor=none;strokeWidth=2;fontStyle=0" parent="1" vertex="1">
          <mxGeometry x="530" y="60" width="100" height="40" as="geometry" />
        </mxCell>
        <mxCell id="GAQoPDuNliMr2iQyG7WM-3" style="edgeStyle=orthogonalEdgeStyle;rounded=0;orthogonalLoop=1;jettySize=auto;html=1;exitX=0.5;exitY=1;exitDx=0;exitDy=0;dashed=1;endArrow=none;endFill=0;strokeWidth=2;fontStyle=0" parent="1" edge="1">
          <mxGeometry relative="1" as="geometry">
            <mxPoint x="580.2941176470588" y="610" as="targetPoint" />
            <mxPoint x="580" y="590" as="sourcePoint" />
          </mxGeometry>
        </mxCell>
        <mxCell id="GAQoPDuNliMr2iQyG7WM-8" value=":EmployeeManager" style="rounded=0;whiteSpace=wrap;html=1;labelBackgroundColor=none;strokeWidth=2;fontStyle=0" parent="1" vertex="1">
          <mxGeometry x="430" y="60" width="100" height="40" as="geometry" />
        </mxCell>
        <mxCell id="GAQoPDuNliMr2iQyG7WM-9" style="edgeStyle=orthogonalEdgeStyle;rounded=0;orthogonalLoop=1;jettySize=auto;html=1;exitX=0.5;exitY=1;exitDx=0;exitDy=0;endArrow=none;endFill=0;dashed=1;dashPattern=8 8;strokeWidth=2;fontStyle=0" parent="1" source="GAQoPDuNliMr2iQyG7WM-8" edge="1">
          <mxGeometry relative="1" as="geometry">
            <mxPoint x="481" y="790" as="targetPoint" />
            <mxPoint x="480" y="350" as="sourcePoint" />
            <Array as="points">
              <mxPoint x="480" y="455" />
              <mxPoint x="481" y="455" />
              <mxPoint x="481" y="600" />
            </Array>
          </mxGeometry>
        </mxCell>
        <mxCell id="GAQoPDuNliMr2iQyG7WM-13" style="edgeStyle=orthogonalEdgeStyle;rounded=0;orthogonalLoop=1;jettySize=auto;html=1;dashed=1;dashPattern=8 8;endArrow=none;endFill=0;labelBackgroundColor=none;fontColor=default;strokeWidth=2;fontStyle=0" parent="1" source="GAQoPDuNliMr2iQyG7WM-14" edge="1">
          <mxGeometry relative="1" as="geometry">
            <mxPoint x="680" y="780" as="targetPoint" />
          </mxGeometry>
        </mxCell>
        <mxCell id="GAQoPDuNliMr2iQyG7WM-14" value=":ShiftManager" style="rounded=0;whiteSpace=wrap;html=1;labelBackgroundColor=none;strokeWidth=2;fontStyle=0" parent="1" vertex="1">
          <mxGeometry x="630" y="60" width="100" height="40" as="geometry" />
        </mxCell>
        <mxCell id="GAQoPDuNliMr2iQyG7WM-17" style="edgeStyle=orthogonalEdgeStyle;rounded=0;orthogonalLoop=1;jettySize=auto;html=1;exitX=0.5;exitY=1;exitDx=0;exitDy=0;endArrow=none;endFill=0;dashed=1;dashPattern=8 8;strokeWidth=2;fontStyle=0" parent="1" edge="1">
          <mxGeometry relative="1" as="geometry">
            <mxPoint x="679.7058823529412" y="560" as="targetPoint" />
            <mxPoint x="680" y="550" as="sourcePoint" />
          </mxGeometry>
        </mxCell>
        <mxCell id="GAQoPDuNliMr2iQyG7WM-21" style="edgeStyle=orthogonalEdgeStyle;rounded=0;orthogonalLoop=1;jettySize=auto;html=1;dashed=1;dashPattern=8 8;endArrow=none;endFill=0;labelBackgroundColor=none;fontColor=default;strokeWidth=2;fontStyle=0" parent="1" source="GAQoPDuNliMr2iQyG7WM-22" edge="1">
          <mxGeometry relative="1" as="geometry">
            <mxPoint x="880" y="530" as="targetPoint" />
          </mxGeometry>
        </mxCell>
        <mxCell id="GAQoPDuNliMr2iQyG7WM-22" value=":ShippingDriver" style="rounded=0;whiteSpace=wrap;html=1;labelBackgroundColor=none;strokeWidth=2;fontStyle=0" parent="1" vertex="1">
          <mxGeometry x="830" y="60" width="100" height="40" as="geometry" />
        </mxCell>
        <mxCell id="GAQoPDuNliMr2iQyG7WM-23" style="edgeStyle=orthogonalEdgeStyle;rounded=0;orthogonalLoop=1;jettySize=auto;html=1;exitX=0.5;exitY=1;exitDx=0;exitDy=0;dashed=1;dashPattern=8 8;endArrow=none;endFill=0;strokeWidth=2;fontStyle=0" parent="1" edge="1">
          <mxGeometry relative="1" as="geometry">
            <mxPoint x="880" y="780" as="targetPoint" />
            <mxPoint x="880" y="530" as="sourcePoint" />
          </mxGeometry>
        </mxCell>
        <mxCell id="GAQoPDuNliMr2iQyG7WM-29" style="edgeStyle=orthogonalEdgeStyle;rounded=0;orthogonalLoop=1;jettySize=auto;html=1;dashed=1;dashPattern=8 8;endArrow=none;endFill=0;labelBackgroundColor=none;fontColor=default;strokeWidth=2;fontStyle=0" parent="1" source="GAQoPDuNliMr2iQyG7WM-76" edge="1">
          <mxGeometry relative="1" as="geometry">
            <mxPoint x="780" y="780" as="targetPoint" />
            <Array as="points">
              <mxPoint x="780" y="350" />
              <mxPoint x="781" y="500" />
            </Array>
          </mxGeometry>
        </mxCell>
        <mxCell id="GAQoPDuNliMr2iQyG7WM-30" value=":Truck" style="rounded=0;whiteSpace=wrap;html=1;labelBackgroundColor=none;strokeWidth=2;fontStyle=0" parent="1" vertex="1">
          <mxGeometry x="730" y="60" width="100" height="40" as="geometry" />
        </mxCell>
        <mxCell id="GAQoPDuNliMr2iQyG7WM-34" style="edgeStyle=orthogonalEdgeStyle;rounded=0;orthogonalLoop=1;jettySize=auto;html=1;exitX=0.5;exitY=1;exitDx=0;exitDy=0;dashed=1;dashPattern=8 8;endArrow=none;endFill=0;labelBackgroundColor=none;fontColor=default;strokeWidth=2;fontStyle=0" parent="1" source="GAQoPDuNliMr2iQyG7WM-35" edge="1">
          <mxGeometry relative="1" as="geometry">
            <mxPoint x="1110" y="250" as="targetPoint" />
          </mxGeometry>
        </mxCell>
        <mxCell id="GAQoPDuNliMr2iQyG7WM-35" value=":EmployeesDAO" style="rounded=0;whiteSpace=wrap;html=1;labelBackgroundColor=none;strokeWidth=2;fontStyle=0" parent="1" vertex="1">
          <mxGeometry x="1060" y="60" width="100" height="40" as="geometry" />
        </mxCell>
        <mxCell id="GAQoPDuNliMr2iQyG7WM-36" style="edgeStyle=orthogonalEdgeStyle;rounded=0;orthogonalLoop=1;jettySize=auto;html=1;dashed=1;dashPattern=8 8;endArrow=none;endFill=0;labelBackgroundColor=none;fontColor=default;strokeWidth=2;fontStyle=0" parent="1" source="GAQoPDuNliMr2iQyG7WM-37" edge="1">
          <mxGeometry relative="1" as="geometry">
            <mxPoint x="1210" y="260" as="targetPoint" />
          </mxGeometry>
        </mxCell>
        <mxCell id="GAQoPDuNliMr2iQyG7WM-37" value=":DB" style="rounded=0;whiteSpace=wrap;html=1;labelBackgroundColor=none;strokeWidth=2;fontStyle=0" parent="1" vertex="1">
          <mxGeometry x="1160" y="60" width="100" height="40" as="geometry" />
        </mxCell>
        <mxCell id="GAQoPDuNliMr2iQyG7WM-44" value="" style="endArrow=none;html=1;rounded=0;fontColor=default;exitX=0.79;exitY=0.909;exitDx=0;exitDy=0;exitPerimeter=0;dashed=1;dashPattern=8 8;endFill=0;labelBackgroundColor=none;strokeWidth=2;fontStyle=0" parent="1" edge="1">
          <mxGeometry width="50" height="50" relative="1" as="geometry">
            <mxPoint x="1110" y="248" as="sourcePoint" />
            <mxPoint x="1110" y="780" as="targetPoint" />
          </mxGeometry>
        </mxCell>
        <mxCell id="GAQoPDuNliMr2iQyG7WM-45" value="" style="endArrow=none;html=1;rounded=0;fontColor=default;exitX=0.96;exitY=0.909;exitDx=0;exitDy=0;exitPerimeter=0;dashed=1;dashPattern=8 8;endFill=0;labelBackgroundColor=none;strokeWidth=2;fontStyle=0" parent="1" source="_X1i5lK3qZlaOGL-oSnp-7" edge="1">
          <mxGeometry width="50" height="50" relative="1" as="geometry">
            <mxPoint x="1210" y="248" as="sourcePoint" />
            <mxPoint x="1210" y="770" as="targetPoint" />
          </mxGeometry>
        </mxCell>
        <mxCell id="GAQoPDuNliMr2iQyG7WM-47" value=":SuperMarketCompany" style="rounded=0;whiteSpace=wrap;html=1;labelBackgroundColor=none;strokeWidth=2;fontStyle=0" parent="1" vertex="1">
          <mxGeometry x="40" y="60" width="130" height="40" as="geometry" />
        </mxCell>
        <mxCell id="GAQoPDuNliMr2iQyG7WM-49" value="" style="endArrow=none;dashed=1;html=1;rounded=0;fontStyle=0;strokeWidth=2;" parent="1" edge="1">
          <mxGeometry width="50" height="50" relative="1" as="geometry">
            <mxPoint x="109.99999999999977" y="459.9999999999999" as="sourcePoint" />
            <mxPoint x="109" y="100" as="targetPoint" />
          </mxGeometry>
        </mxCell>
        <mxCell id="GAQoPDuNliMr2iQyG7WM-50" value="" style="endArrow=none;dashed=1;html=1;rounded=0;fontStyle=0;strokeWidth=2;" parent="1" edge="1">
          <mxGeometry width="50" height="50" relative="1" as="geometry">
            <mxPoint x="109.42000000000002" y="790.8333333333334" as="sourcePoint" />
            <mxPoint x="109.42000000000002" y="720" as="targetPoint" />
          </mxGeometry>
        </mxCell>
        <mxCell id="GAQoPDuNliMr2iQyG7WM-55" value=":ExecuteController" style="rounded=0;whiteSpace=wrap;html=1;labelBackgroundColor=none;strokeWidth=2;fontStyle=0" parent="1" vertex="1">
          <mxGeometry x="170" y="60" width="130" height="40" as="geometry" />
        </mxCell>
        <mxCell id="GAQoPDuNliMr2iQyG7WM-56" value="" style="endArrow=none;dashed=1;html=1;rounded=0;fontStyle=0;strokeWidth=2;" parent="1" edge="1">
          <mxGeometry width="50" height="50" relative="1" as="geometry">
            <mxPoint x="239.42000000000002" y="720" as="sourcePoint" />
            <mxPoint x="239" y="100" as="targetPoint" />
          </mxGeometry>
        </mxCell>
        <mxCell id="GAQoPDuNliMr2iQyG7WM-57" value="" style="endArrow=none;dashed=1;html=1;rounded=0;fontStyle=0;strokeWidth=2;" parent="1" edge="1">
          <mxGeometry width="50" height="50" relative="1" as="geometry">
            <mxPoint x="239.42000000000002" y="790.8333333333334" as="sourcePoint" />
            <mxPoint x="239.42000000000002" y="720" as="targetPoint" />
          </mxGeometry>
        </mxCell>
        <mxCell id="GAQoPDuNliMr2iQyG7WM-60" value=":Shipment" style="rounded=0;whiteSpace=wrap;html=1;labelBackgroundColor=none;strokeWidth=2;fontStyle=0" parent="1" vertex="1">
          <mxGeometry x="300" y="60" width="130" height="40" as="geometry" />
        </mxCell>
        <mxCell id="GAQoPDuNliMr2iQyG7WM-61" value="" style="endArrow=none;dashed=1;html=1;rounded=0;fontStyle=0;strokeWidth=2;" parent="1" source="GAQoPDuNliMr2iQyG7WM-111" edge="1">
          <mxGeometry width="50" height="50" relative="1" as="geometry">
            <mxPoint x="369.42" y="720" as="sourcePoint" />
            <mxPoint x="369" y="100" as="targetPoint" />
          </mxGeometry>
        </mxCell>
        <mxCell id="GAQoPDuNliMr2iQyG7WM-62" value="" style="endArrow=none;dashed=1;html=1;rounded=0;fontStyle=0;strokeWidth=2;" parent="1" edge="1">
          <mxGeometry width="50" height="50" relative="1" as="geometry">
            <mxPoint x="369.42" y="790.8333333333334" as="sourcePoint" />
            <mxPoint x="369.42" y="720" as="targetPoint" />
          </mxGeometry>
        </mxCell>
        <mxCell id="GAQoPDuNliMr2iQyG7WM-67" value=":ShipmentDAO" style="rounded=0;whiteSpace=wrap;html=1;labelBackgroundColor=none;strokeWidth=2;fontStyle=0" parent="1" vertex="1">
          <mxGeometry x="930" y="60" width="130" height="40" as="geometry" />
        </mxCell>
        <mxCell id="GAQoPDuNliMr2iQyG7WM-68" value="" style="endArrow=none;dashed=1;html=1;rounded=0;fontStyle=0;strokeWidth=2;" parent="1" edge="1">
          <mxGeometry width="50" height="50" relative="1" as="geometry">
            <mxPoint x="999" y="780" as="sourcePoint" />
            <mxPoint x="999" y="100" as="targetPoint" />
          </mxGeometry>
        </mxCell>
        <mxCell id="GAQoPDuNliMr2iQyG7WM-70" value="setExecution(shipment,date,time)" style="html=1;verticalAlign=bottom;startArrow=oval;endArrow=block;startSize=8;edgeStyle=elbowEdgeStyle;elbow=vertical;curved=0;rounded=0;strokeWidth=2;fontStyle=0" parent="1" edge="1">
          <mxGeometry relative="1" as="geometry">
            <mxPoint x="-30" y="130" as="sourcePoint" />
            <mxPoint x="110" y="130" as="targetPoint" />
            <mxPoint as="offset" />
          </mxGeometry>
        </mxCell>
        <mxCell id="GAQoPDuNliMr2iQyG7WM-74" value="ref" style="shape=umlFrame;whiteSpace=wrap;html=1;pointerEvents=0;strokeWidth=2;labelBackgroundColor=none;fillColor=#f8cecc;strokeColor=#b85450;fontStyle=0" parent="1" vertex="1">
          <mxGeometry x="580" y="170" width="630" height="70" as="geometry" />
        </mxCell>
        <mxCell id="GAQoPDuNliMr2iQyG7WM-77" value="" style="edgeStyle=orthogonalEdgeStyle;rounded=0;orthogonalLoop=1;jettySize=auto;html=1;dashed=1;dashPattern=8 8;endArrow=none;endFill=0;labelBackgroundColor=none;fontColor=default;strokeWidth=2;fontStyle=0" parent="1" source="GAQoPDuNliMr2iQyG7WM-30" target="GAQoPDuNliMr2iQyG7WM-76" edge="1">
          <mxGeometry relative="1" as="geometry">
            <mxPoint x="780" y="500" as="targetPoint" />
            <mxPoint x="780" y="100" as="sourcePoint" />
            <Array as="points">
              <mxPoint x="780" y="150" />
              <mxPoint x="780" y="150" />
            </Array>
          </mxGeometry>
        </mxCell>
        <mxCell id="GAQoPDuNliMr2iQyG7WM-76" value="there_is_storekeepers" style="rounded=1;whiteSpace=wrap;html=1;strokeWidth=2;labelBackgroundColor=none;fillColor=#f8cecc;strokeColor=#b85450;fontStyle=0" parent="1" vertex="1">
          <mxGeometry x="640" y="170" width="210" height="30" as="geometry" />
        </mxCell>
        <mxCell id="GAQoPDuNliMr2iQyG7WM-78" value="" style="endArrow=classic;html=1;rounded=0;strokeWidth=2;fontStyle=0" parent="1" edge="1">
          <mxGeometry width="50" height="50" relative="1" as="geometry">
            <mxPoint x="110" y="160" as="sourcePoint" />
            <mxPoint x="580" y="160" as="targetPoint" />
          </mxGeometry>
        </mxCell>
        <mxCell id="GAQoPDuNliMr2iQyG7WM-82" value="there_is_storekeepers(date,branches)" style="text;html=1;strokeColor=none;fillColor=none;align=center;verticalAlign=middle;whiteSpace=wrap;rounded=0;strokeWidth=2;fontStyle=0" parent="1" vertex="1">
          <mxGeometry x="350" y="130" width="170" height="30" as="geometry" />
        </mxCell>
        <mxCell id="GAQoPDuNliMr2iQyG7WM-85" value="true" style="html=1;verticalAlign=bottom;endArrow=open;dashed=1;endSize=8;edgeStyle=elbowEdgeStyle;elbow=vertical;curved=0;rounded=0;exitX=-0.006;exitY=0.272;exitDx=0;exitDy=0;exitPerimeter=0;strokeWidth=2;fontStyle=0" parent="1" edge="1">
          <mxGeometry x="0.0108" relative="1" as="geometry">
            <mxPoint x="575" y="240.15" as="sourcePoint" />
            <mxPoint x="110" y="240.15" as="targetPoint" />
            <mxPoint as="offset" />
          </mxGeometry>
        </mxCell>
        <mxCell id="GAQoPDuNliMr2iQyG7WM-86" value="alt" style="shape=umlFrame;whiteSpace=wrap;html=1;pointerEvents=0;fontStyle=0;strokeWidth=2;fillColor=#ffe6cc;strokeColor=#d79b00;width=40;height=15;" parent="1" vertex="1">
          <mxGeometry x="110" y="170" width="1100" height="620" as="geometry" />
        </mxCell>
        <mxCell id="GAQoPDuNliMr2iQyG7WM-87" value="there is a store keeper at every site" style="rounded=1;whiteSpace=wrap;html=1;strokeWidth=2;labelBackgroundColor=none;fontStyle=0" parent="1" vertex="1">
          <mxGeometry x="150" y="170" width="240" height="20" as="geometry" />
        </mxCell>
        <mxCell id="GAQoPDuNliMr2iQyG7WM-89" value="false" style="html=1;verticalAlign=bottom;endArrow=open;dashed=1;endSize=8;edgeStyle=elbowEdgeStyle;elbow=vertical;curved=0;rounded=0;exitX=-0.006;exitY=0.272;exitDx=0;exitDy=0;exitPerimeter=0;strokeWidth=2;fontStyle=0" parent="1" edge="1">
          <mxGeometry x="0.0107" relative="1" as="geometry">
            <mxPoint x="577.5" y="200" as="sourcePoint" />
            <mxPoint x="112.5" y="200" as="targetPoint" />
            <mxPoint as="offset" />
          </mxGeometry>
        </mxCell>
        <mxCell id="GAQoPDuNliMr2iQyG7WM-90" value="exception" style="html=1;verticalAlign=bottom;endArrow=open;dashed=1;endSize=8;edgeStyle=elbowEdgeStyle;elbow=vertical;curved=0;rounded=0;strokeWidth=2;fontStyle=0" parent="1" edge="1">
          <mxGeometry relative="1" as="geometry">
            <mxPoint x="110" y="209.82" as="sourcePoint" />
            <mxPoint x="30" y="209.82" as="targetPoint" />
            <mxPoint as="offset" />
          </mxGeometry>
        </mxCell>
        <mxCell id="GAQoPDuNliMr2iQyG7WM-91" value="" style="endArrow=none;dashed=1;html=1;rounded=0;entryX=1;entryY=0.075;entryDx=0;entryDy=0;entryPerimeter=0;strokeWidth=2;fontStyle=0" parent="1" target="GAQoPDuNliMr2iQyG7WM-86" edge="1">
          <mxGeometry width="50" height="50" relative="1" as="geometry">
            <mxPoint x="110" y="220" as="sourcePoint" />
            <mxPoint x="240" y="250" as="targetPoint" />
            <Array as="points" />
          </mxGeometry>
        </mxCell>
        <mxCell id="GAQoPDuNliMr2iQyG7WM-92" value="" style="endArrow=classic;html=1;rounded=0;strokeWidth=2;fontStyle=0" parent="1" edge="1">
          <mxGeometry width="50" height="50" relative="1" as="geometry">
            <mxPoint x="110" y="300" as="sourcePoint" />
            <mxPoint x="580" y="300" as="targetPoint" />
          </mxGeometry>
        </mxCell>
        <mxCell id="GAQoPDuNliMr2iQyG7WM-93" value="get_available_drivers(truck,date,time)" style="text;html=1;strokeColor=none;fillColor=none;align=center;verticalAlign=middle;whiteSpace=wrap;rounded=0;strokeWidth=2;fontStyle=0" parent="1" vertex="1">
          <mxGeometry x="360" y="270" width="170" height="30" as="geometry" />
        </mxCell>
        <mxCell id="GAQoPDuNliMr2iQyG7WM-94" value="ref" style="shape=umlFrame;whiteSpace=wrap;html=1;pointerEvents=0;strokeWidth=2;labelBackgroundColor=none;fillColor=#f8cecc;strokeColor=#b85450;fontStyle=0" parent="1" vertex="1">
          <mxGeometry x="580" y="300" width="630" height="70" as="geometry" />
        </mxCell>
        <mxCell id="GAQoPDuNliMr2iQyG7WM-95" value="get_available_drivers" style="rounded=1;whiteSpace=wrap;html=1;strokeWidth=2;labelBackgroundColor=none;fillColor=#f8cecc;strokeColor=#b85450;fontStyle=0" parent="1" vertex="1">
          <mxGeometry x="640" y="300" width="210" height="30" as="geometry" />
        </mxCell>
        <mxCell id="GAQoPDuNliMr2iQyG7WM-96" value="driver_list" style="html=1;verticalAlign=bottom;endArrow=open;dashed=1;endSize=8;edgeStyle=elbowEdgeStyle;elbow=vertical;curved=0;rounded=0;strokeWidth=2;fontStyle=0" parent="1" edge="1">
          <mxGeometry relative="1" as="geometry">
            <mxPoint x="570" y="330" as="sourcePoint" />
            <mxPoint x="110" y="330" as="targetPoint" />
          </mxGeometry>
        </mxCell>
        <mxCell id="GAQoPDuNliMr2iQyG7WM-97" value="opt" style="shape=umlFrame;whiteSpace=wrap;html=1;pointerEvents=0;fontStyle=0;strokeWidth=2;fillColor=#ffe6cc;strokeColor=#d79b00;width=40;height=15;" parent="1" vertex="1">
          <mxGeometry x="110" y="350" width="470" height="60" as="geometry" />
        </mxCell>
        <mxCell id="GAQoPDuNliMr2iQyG7WM-98" value="if driver_list is empty" style="rounded=1;whiteSpace=wrap;html=1;strokeWidth=2;labelBackgroundColor=none;fontStyle=0" parent="1" vertex="1">
          <mxGeometry x="150" y="350" width="240" height="20" as="geometry" />
        </mxCell>
        <mxCell id="GAQoPDuNliMr2iQyG7WM-99" value="exception" style="html=1;verticalAlign=bottom;endArrow=open;dashed=1;endSize=8;edgeStyle=elbowEdgeStyle;elbow=vertical;curved=0;rounded=0;strokeWidth=2;fontStyle=0" parent="1" source="_X1i5lK3qZlaOGL-oSnp-1" edge="1">
          <mxGeometry relative="1" as="geometry">
            <mxPoint x="110" y="390" as="sourcePoint" />
            <mxPoint x="30" y="390" as="targetPoint" />
            <mxPoint as="offset" />
          </mxGeometry>
        </mxCell>
        <mxCell id="GAQoPDuNliMr2iQyG7WM-102" value="pick_driver()" style="html=1;align=left;spacingLeft=2;endArrow=block;rounded=0;edgeStyle=orthogonalEdgeStyle;curved=0;rounded=0;strokeWidth=2;fontStyle=0" parent="1" edge="1">
          <mxGeometry relative="1" as="geometry">
            <mxPoint x="110" y="430" as="sourcePoint" />
            <Array as="points">
              <mxPoint x="140" y="430" />
              <mxPoint x="140" y="460" />
            </Array>
            <mxPoint x="119.99999999999977" y="460.0000000000001" as="targetPoint" />
          </mxGeometry>
        </mxCell>
        <mxCell id="GAQoPDuNliMr2iQyG7WM-103" value="" style="endArrow=none;dashed=1;html=1;rounded=0;fontStyle=0;strokeWidth=2;" parent="1" edge="1">
          <mxGeometry width="50" height="50" relative="1" as="geometry">
            <mxPoint x="109.42000000000002" y="720" as="sourcePoint" />
            <mxPoint x="109.99999999999977" y="499.9999999999999" as="targetPoint" />
          </mxGeometry>
        </mxCell>
        <mxCell id="GAQoPDuNliMr2iQyG7WM-104" value="" style="endArrow=classic;html=1;rounded=0;strokeWidth=2;fontStyle=0" parent="1" edge="1">
          <mxGeometry width="50" height="50" relative="1" as="geometry">
            <mxPoint x="110" y="530" as="sourcePoint" />
            <mxPoint x="240" y="530" as="targetPoint" />
          </mxGeometry>
        </mxCell>
        <mxCell id="GAQoPDuNliMr2iQyG7WM-106" value="readyShipment&lt;br&gt;(shipment,date,time,&lt;br&gt;Cdriverid,Cdrivername)" style="text;html=1;strokeColor=none;fillColor=none;align=center;verticalAlign=middle;whiteSpace=wrap;rounded=0;strokeWidth=2;fontStyle=0" parent="1" vertex="1">
          <mxGeometry x="120" y="480" width="110" height="50" as="geometry" />
        </mxCell>
        <mxCell id="GAQoPDuNliMr2iQyG7WM-110" value="" style="endArrow=classic;html=1;rounded=0;strokeWidth=2;fontStyle=0;" parent="1" target="_X1i5lK3qZlaOGL-oSnp-4" edge="1">
          <mxGeometry width="50" height="50" relative="1" as="geometry">
            <mxPoint x="240" y="560" as="sourcePoint" />
            <mxPoint x="370" y="560" as="targetPoint" />
          </mxGeometry>
        </mxCell>
        <mxCell id="GAQoPDuNliMr2iQyG7WM-112" value="" style="endArrow=classic;html=1;rounded=0;strokeWidth=2;fontStyle=0" parent="1" target="_X1i5lK3qZlaOGL-oSnp-6" edge="1">
          <mxGeometry width="50" height="50" relative="1" as="geometry">
            <mxPoint x="240" y="590" as="sourcePoint" />
            <mxPoint x="980" y="590" as="targetPoint" />
          </mxGeometry>
        </mxCell>
        <mxCell id="GAQoPDuNliMr2iQyG7WM-113" value="updateShipment(shipment)" style="text;html=1;strokeColor=none;fillColor=none;align=center;verticalAlign=middle;whiteSpace=wrap;rounded=0;strokeWidth=2;fontStyle=0" parent="1" vertex="1">
          <mxGeometry x="360" y="560" width="270" height="30" as="geometry" />
        </mxCell>
        <mxCell id="GAQoPDuNliMr2iQyG7WM-116" value="" style="endArrow=classic;html=1;rounded=0;strokeWidth=2;fontStyle=0" parent="1" edge="1">
          <mxGeometry width="50" height="50" relative="1" as="geometry">
            <mxPoint x="1000" y="630" as="sourcePoint" />
            <mxPoint x="1210" y="630" as="targetPoint" />
          </mxGeometry>
        </mxCell>
        <mxCell id="GAQoPDuNliMr2iQyG7WM-117" value="update()" style="text;html=1;strokeColor=none;fillColor=none;align=center;verticalAlign=middle;whiteSpace=wrap;rounded=0;strokeWidth=2;fontStyle=0" parent="1" vertex="1">
          <mxGeometry x="971" y="610" width="270" height="30" as="geometry" />
        </mxCell>
        <mxCell id="GAQoPDuNliMr2iQyG7WM-118" value="alt" style="shape=umlFrame;whiteSpace=wrap;html=1;pointerEvents=0;strokeWidth=2;labelBackgroundColor=none;fillColor=#ffe6cc;strokeColor=#d79b00;fontStyle=0" parent="1" vertex="1">
          <mxGeometry x="110" y="620" width="1100" height="100" as="geometry" />
        </mxCell>
        <mxCell id="GAQoPDuNliMr2iQyG7WM-119" value="return false" style="text;html=1;align=center;verticalAlign=middle;whiteSpace=wrap;rounded=0;fontStyle=0;strokeWidth=2;" parent="1" vertex="1">
          <mxGeometry x="770" y="644.47" width="89" height="30" as="geometry" />
        </mxCell>
        <mxCell id="GAQoPDuNliMr2iQyG7WM-120" value="" style="endArrow=block;dashed=1;endFill=0;endSize=12;html=1;rounded=0;fontStyle=0;strokeWidth=2;" parent="1" edge="1">
          <mxGeometry width="160" relative="1" as="geometry">
            <mxPoint x="245" y="673.6400000000001" as="sourcePoint" />
            <mxPoint x="110" y="674" as="targetPoint" />
          </mxGeometry>
        </mxCell>
        <mxCell id="GAQoPDuNliMr2iQyG7WM-121" value="error message&amp;nbsp;" style="text;html=1;align=center;verticalAlign=middle;whiteSpace=wrap;rounded=0;fontStyle=0;strokeWidth=2;" parent="1" vertex="1">
          <mxGeometry x="120" y="644.47" width="114" height="25.53" as="geometry" />
        </mxCell>
        <mxCell id="GAQoPDuNliMr2iQyG7WM-122" value="" style="endArrow=block;dashed=1;endFill=0;endSize=12;html=1;rounded=0;fontStyle=0;strokeWidth=2;" parent="1" edge="1">
          <mxGeometry width="160" relative="1" as="geometry">
            <mxPoint x="1000" y="674" as="sourcePoint" />
            <mxPoint x="240" y="674" as="targetPoint" />
            <Array as="points">
              <mxPoint x="630" y="674.47" />
            </Array>
          </mxGeometry>
        </mxCell>
        <mxCell id="GAQoPDuNliMr2iQyG7WM-123" value="return true" style="text;html=1;align=center;verticalAlign=middle;whiteSpace=wrap;rounded=0;fontStyle=0;strokeWidth=2;" parent="1" vertex="1">
          <mxGeometry x="770" y="684.47" width="89" height="30" as="geometry" />
        </mxCell>
        <mxCell id="GAQoPDuNliMr2iQyG7WM-124" value="" style="endArrow=block;dashed=1;endFill=0;endSize=12;html=1;rounded=0;fontStyle=0;strokeWidth=2;" parent="1" edge="1">
          <mxGeometry width="160" relative="1" as="geometry">
            <mxPoint x="1000" y="710" as="sourcePoint" />
            <mxPoint x="240" y="710" as="targetPoint" />
            <Array as="points">
              <mxPoint x="630" y="708.94" />
            </Array>
          </mxGeometry>
        </mxCell>
        <mxCell id="GAQoPDuNliMr2iQyG7WM-127" value="" style="endArrow=none;dashed=1;html=1;rounded=0;strokeWidth=2;fontStyle=0" parent="1" source="_X1i5lK3qZlaOGL-oSnp-9" edge="1">
          <mxGeometry width="50" height="50" relative="1" as="geometry">
            <mxPoint x="520" y="620" as="sourcePoint" />
            <mxPoint x="1000" y="694" as="targetPoint" />
          </mxGeometry>
        </mxCell>
        <mxCell id="GAQoPDuNliMr2iQyG7WM-128" value="if not found" style="rounded=1;whiteSpace=wrap;html=1;strokeWidth=2;labelBackgroundColor=none;fontStyle=0" parent="1" vertex="1">
          <mxGeometry x="170" y="620" width="240" height="20" as="geometry" />
        </mxCell>
        <mxCell id="GAQoPDuNliMr2iQyG7WM-129" value="error message&amp;nbsp;" style="text;html=1;align=center;verticalAlign=middle;whiteSpace=wrap;rounded=0;fontStyle=0;strokeWidth=2;" parent="1" vertex="1">
          <mxGeometry x="-4" y="655" width="114" height="30" as="geometry" />
        </mxCell>
        <mxCell id="GAQoPDuNliMr2iQyG7WM-130" value="" style="endArrow=block;dashed=1;endFill=0;endSize=12;html=1;rounded=0;fontStyle=0;strokeWidth=2;" parent="1" edge="1">
          <mxGeometry width="160" relative="1" as="geometry">
            <mxPoint x="110" y="685.0000000000001" as="sourcePoint" />
            <mxPoint x="-15" y="685" as="targetPoint" />
          </mxGeometry>
        </mxCell>
        <mxCell id="GAQoPDuNliMr2iQyG7WM-131" value="shipment strated massage" style="text;html=1;align=center;verticalAlign=middle;whiteSpace=wrap;rounded=0;fontStyle=0;strokeWidth=2;" parent="1" vertex="1">
          <mxGeometry x="-9" y="682.8" width="114" height="30" as="geometry" />
        </mxCell>
        <mxCell id="GAQoPDuNliMr2iQyG7WM-132" value="" style="endArrow=block;dashed=1;endFill=0;endSize=12;html=1;rounded=0;fontStyle=0;strokeWidth=2;" parent="1" edge="1">
          <mxGeometry width="160" relative="1" as="geometry">
            <mxPoint x="105" y="712.8000000000001" as="sourcePoint" />
            <mxPoint x="-20" y="712.8" as="targetPoint" />
          </mxGeometry>
        </mxCell>
        <mxCell id="GAQoPDuNliMr2iQyG7WM-133" value="" style="endArrow=block;dashed=1;endFill=0;endSize=12;html=1;rounded=0;fontStyle=0;strokeWidth=2;" parent="1" edge="1">
          <mxGeometry width="160" relative="1" as="geometry">
            <mxPoint x="242.5" y="712.8000000000001" as="sourcePoint" />
            <mxPoint x="107.5" y="713.16" as="targetPoint" />
          </mxGeometry>
        </mxCell>
        <mxCell id="GAQoPDuNliMr2iQyG7WM-134" value="true" style="text;html=1;align=center;verticalAlign=middle;whiteSpace=wrap;rounded=0;fontStyle=0;strokeWidth=2;" parent="1" vertex="1">
          <mxGeometry x="120" y="688.94" width="114" height="25.53" as="geometry" />
        </mxCell>
        <mxCell id="_X1i5lK3qZlaOGL-oSnp-2" value="" style="html=1;verticalAlign=bottom;endArrow=open;dashed=1;endSize=8;edgeStyle=elbowEdgeStyle;elbow=vertical;curved=0;rounded=0;strokeWidth=2;fontStyle=0" parent="1" target="_X1i5lK3qZlaOGL-oSnp-1" edge="1">
          <mxGeometry relative="1" as="geometry">
            <mxPoint x="110" y="390" as="sourcePoint" />
            <mxPoint x="30" y="390" as="targetPoint" />
            <mxPoint as="offset" />
          </mxGeometry>
        </mxCell>
        <mxCell id="_X1i5lK3qZlaOGL-oSnp-1" value="" style="points=[];perimeter=orthogonalPerimeter;outlineConnect=0;targetShapes=umlLifeline;portConstraint=eastwest;newEdgeStyle={&quot;edgeStyle&quot;:&quot;elbowEdgeStyle&quot;,&quot;elbow&quot;:&quot;vertical&quot;,&quot;curved&quot;:0,&quot;rounded&quot;:0};strokeWidth=2;labelBackgroundColor=none;fillColor=default;fontColor=default;html=1;" parent="1" vertex="1">
          <mxGeometry x="105" y="120" width="10" height="620" as="geometry" />
        </mxCell>
        <mxCell id="_X1i5lK3qZlaOGL-oSnp-3" value="" style="points=[];perimeter=orthogonalPerimeter;outlineConnect=0;targetShapes=umlLifeline;portConstraint=eastwest;newEdgeStyle={&quot;edgeStyle&quot;:&quot;elbowEdgeStyle&quot;,&quot;elbow&quot;:&quot;vertical&quot;,&quot;curved&quot;:0,&quot;rounded&quot;:0};strokeWidth=2;labelBackgroundColor=none;fillColor=default;fontColor=default;html=1;" parent="1" vertex="1">
          <mxGeometry x="234" y="520" width="10" height="100" as="geometry" />
        </mxCell>
        <mxCell id="_X1i5lK3qZlaOGL-oSnp-4" value="" style="points=[];perimeter=orthogonalPerimeter;outlineConnect=0;targetShapes=umlLifeline;portConstraint=eastwest;newEdgeStyle={&quot;edgeStyle&quot;:&quot;elbowEdgeStyle&quot;,&quot;elbow&quot;:&quot;vertical&quot;,&quot;curved&quot;:0,&quot;rounded&quot;:0};strokeWidth=2;labelBackgroundColor=none;fillColor=default;fontColor=default;html=1;" parent="1" vertex="1">
          <mxGeometry x="360" y="550" width="10" height="30" as="geometry" />
        </mxCell>
        <mxCell id="_X1i5lK3qZlaOGL-oSnp-5" value="" style="endArrow=none;dashed=1;html=1;rounded=0;fontStyle=0;strokeWidth=2;" parent="1" target="GAQoPDuNliMr2iQyG7WM-111" edge="1">
          <mxGeometry width="50" height="50" relative="1" as="geometry">
            <mxPoint x="369.42" y="720" as="sourcePoint" />
            <mxPoint x="369" y="100" as="targetPoint" />
          </mxGeometry>
        </mxCell>
        <mxCell id="GAQoPDuNliMr2iQyG7WM-111" value="setShipment(date,time,driverid,drivername)" style="text;html=1;strokeColor=none;fillColor=none;align=center;verticalAlign=middle;whiteSpace=wrap;rounded=0;strokeWidth=2;fontStyle=0" parent="1" vertex="1">
          <mxGeometry x="315" y="530" width="100" height="30" as="geometry" />
        </mxCell>
        <mxCell id="_X1i5lK3qZlaOGL-oSnp-6" value="" style="points=[];perimeter=orthogonalPerimeter;outlineConnect=0;targetShapes=umlLifeline;portConstraint=eastwest;newEdgeStyle={&quot;edgeStyle&quot;:&quot;elbowEdgeStyle&quot;,&quot;elbow&quot;:&quot;vertical&quot;,&quot;curved&quot;:0,&quot;rounded&quot;:0};strokeWidth=2;labelBackgroundColor=none;fillColor=default;fontColor=default;html=1;" parent="1" vertex="1">
          <mxGeometry x="990" y="572" width="10" height="140" as="geometry" />
        </mxCell>
        <mxCell id="_X1i5lK3qZlaOGL-oSnp-8" value="" style="endArrow=none;html=1;rounded=0;fontColor=default;exitX=0.96;exitY=0.909;exitDx=0;exitDy=0;exitPerimeter=0;dashed=1;dashPattern=8 8;endFill=0;labelBackgroundColor=none;strokeWidth=2;fontStyle=0" parent="1" target="_X1i5lK3qZlaOGL-oSnp-7" edge="1">
          <mxGeometry width="50" height="50" relative="1" as="geometry">
            <mxPoint x="1210" y="248" as="sourcePoint" />
            <mxPoint x="1210" y="770" as="targetPoint" />
          </mxGeometry>
        </mxCell>
        <mxCell id="_X1i5lK3qZlaOGL-oSnp-7" value="" style="points=[];perimeter=orthogonalPerimeter;outlineConnect=0;targetShapes=umlLifeline;portConstraint=eastwest;newEdgeStyle={&quot;edgeStyle&quot;:&quot;elbowEdgeStyle&quot;,&quot;elbow&quot;:&quot;vertical&quot;,&quot;curved&quot;:0,&quot;rounded&quot;:0};strokeWidth=2;labelBackgroundColor=none;fillColor=default;fontColor=default;html=1;" parent="1" vertex="1">
          <mxGeometry x="1205" y="620" width="10" height="70" as="geometry" />
        </mxCell>
        <mxCell id="_X1i5lK3qZlaOGL-oSnp-10" value="" style="endArrow=none;dashed=1;html=1;rounded=0;exitX=0.003;exitY=0.74;exitDx=0;exitDy=0;exitPerimeter=0;strokeWidth=2;fontStyle=0" parent="1" source="GAQoPDuNliMr2iQyG7WM-118" target="_X1i5lK3qZlaOGL-oSnp-9" edge="1">
          <mxGeometry width="50" height="50" relative="1" as="geometry">
            <mxPoint x="113" y="694" as="sourcePoint" />
            <mxPoint x="1000" y="694" as="targetPoint" />
          </mxGeometry>
        </mxCell>
        <mxCell id="_X1i5lK3qZlaOGL-oSnp-9" value="" style="points=[];perimeter=orthogonalPerimeter;outlineConnect=0;targetShapes=umlLifeline;portConstraint=eastwest;newEdgeStyle={&quot;edgeStyle&quot;:&quot;elbowEdgeStyle&quot;,&quot;elbow&quot;:&quot;vertical&quot;,&quot;curved&quot;:0,&quot;rounded&quot;:0};strokeWidth=2;labelBackgroundColor=none;fillColor=default;fontColor=default;html=1;" parent="1" vertex="1">
          <mxGeometry x="234" y="640" width="10" height="95" as="geometry" />
        </mxCell>
        <mxCell id="2GkZLQMSxnVTttX0VStd-1" value="sd: set Execution" style="shape=umlFrame;whiteSpace=wrap;html=1;pointerEvents=0;fontStyle=0;strokeWidth=2;fillColor=#ffe6cc;strokeColor=#d79b00;width=70;height=30;" vertex="1" parent="1">
          <mxGeometry x="-50" y="50" width="1320" height="750" as="geometry" />
        </mxCell>
      </root>
    </mxGraphModel>
  </diagram>
</mxfile>
